<svg xmlns="http://www.w3.org/2000/svg" width="500" height="500" viewBox="0 0 500 500" version="1.1"><path d="M 191.635 128.100 C 188.409 128.571, 181.589 130.070, 176.479 131.430 C 153.187 137.629, 138.120 145.823, 123.991 159.976 C 110.361 173.628, 105.417 184.578, 104.337 203.500 C 103.627 215.940, 104.944 223.375, 109.503 232.658 C 116.547 247, 128.171 254.014, 144.855 253.988 C 159.525 253.965, 167.828 250.138, 191.500 232.486 C 199.200 226.744, 208.650 220.485, 212.500 218.577 C 232.651 208.589, 259.631 206.025, 281.754 211.994 C 289.667 214.129, 290 214.336, 290 217.110 L 290 220 259 220 L 228 220 228 242.500 L 228 265 259 265 L 290 265 290 297.500 L 290 330 313 330 L 336 330 336 297.500 L 336 265 340.905 265 L 345.811 265 348.770 273.250 C 353.901 287.554, 354.503 291.335, 354.462 309 C 354.422 326.581, 353.567 331.565, 348.282 345 C 345.308 352.560, 338.897 363.995, 334.848 368.963 C 333.003 371.226, 332.365 372.765, 333.006 373.406 C 334.361 374.761, 338.908 370.223, 344.886 361.550 C 370.125 324.938, 370.162 279.992, 344.983 243.570 C 334.520 228.434, 316.723 214.291, 299.687 207.573 C 285.137 201.835, 278.700 200.658, 262 200.679 C 248.448 200.697, 245.246 201.032, 236.523 203.350 C 224.965 206.420, 208.909 214.021, 201 220.167 C 173.459 241.568, 164.853 246.903, 153.705 249.489 C 137.256 253.303, 120.126 245.968, 113.039 232.076 C 105.526 217.349, 106.479 193.210, 115.225 176.686 C 121.086 165.615, 135.472 152.825, 150.705 145.145 C 170.676 135.076, 189.838 130.918, 216.163 130.943 C 234.182 130.960, 247.013 133.052, 260.131 138.111 C 268.387 141.295, 280.917 148.990, 284.878 153.309 C 287.238 155.882, 287.243 155.934, 285.519 160.201 C 284.546 162.606, 283.774 167.154, 283.765 170.524 C 283.711 191.884, 306.497 205.474, 325.249 195.268 C 331.165 192.048, 334.495 188.294, 337.786 181.135 C 339.859 176.624, 340.176 174.712, 339.774 169.135 C 338.972 158.010, 333.734 149.953, 324 144.871 C 320.342 142.961, 318.002 142.528, 311.500 142.560 C 302.713 142.602, 298.821 144.023, 293.387 149.175 L 290.274 152.127 283.528 147.021 C 264.804 132.849, 243.706 126.884, 213.151 127.122 C 204.543 127.189, 194.861 127.629, 191.635 128.100 M 303.500 148.490 C 297.395 150.631, 290.435 158.697, 288.944 165.361 C 284.673 184.446, 303.826 199.882, 321.541 191.633 C 333.631 186.003, 338.370 172.688, 332.623 160.500 C 329.813 154.542, 327.048 151.826, 321 149.084 C 315.782 146.718, 309.192 146.495, 303.500 148.490 M 304.500 154.417 C 302.850 155.154, 300.291 157.049, 298.814 158.628 C 291.777 166.151, 292.435 176.785, 300.369 183.751 C 304.747 187.595, 307.481 188.400, 314.012 187.773 C 327.512 186.476, 333.954 171.171, 325.812 159.737 C 321.616 153.843, 311.463 151.309, 304.500 154.417 M 329.677 196.723 C 323.745 200.688, 319.281 201.984, 311.500 202.003 L 305.500 202.018 312.527 205.525 C 316.391 207.455, 322.859 211.520, 326.900 214.560 C 330.941 217.599, 334.430 219.904, 334.653 219.680 C 334.877 219.456, 334.934 213.474, 334.780 206.387 L 334.500 193.500 329.677 196.723 M 291 196.415 C 291 197.455, 297.903 200.430, 298.630 199.704 C 298.757 199.576, 297.092 198.503, 294.931 197.319 C 292.270 195.862, 291 195.570, 291 196.415 M 342.498 228.535 C 350.522 237.735, 355.113 244.800, 360.144 255.691 L 363.983 264 379.992 264 L 396 264 396 242.500 L 396 221 365.963 221 L 335.927 221 342.498 228.535 M 114 290.427 C 114 300.290, 115.755 302.142, 116.202 292.750 L 116.500 286.500 118.995 292.750 C 120.367 296.188, 121.944 299, 122.500 299 C 123.056 299, 124.633 296.188, 126.005 292.750 L 128.500 286.500 128.798 292.750 C 129.245 302.142, 131 300.290, 131 290.427 C 131 282.918, 130.790 281.894, 129.311 282.179 C 128.356 282.363, 126.726 284.732, 125.561 287.631 C 124.427 290.450, 123.117 292.924, 122.649 293.129 C 122.181 293.333, 120.804 291.026, 119.588 288.002 C 118.314 284.831, 116.664 282.366, 115.689 282.179 C 114.210 281.894, 114 282.918, 114 290.427 M 135 290.500 L 135 299 140.500 299 C 143.525 299, 146 298.550, 146 298 C 146 297.450, 144.200 297, 142 297 C 138.222 297, 138 296.833, 138 294 C 138 291.238, 138.278 291, 141.500 291 C 143.425 291, 145 290.550, 145 290 C 145 289.450, 143.425 289, 141.500 289 C 138.433 289, 138 288.690, 138 286.500 C 138 284.250, 138.400 284, 142 284 C 144.200 284, 146 283.550, 146 283 C 146 282.450, 143.525 282, 140.500 282 L 135 282 135 290.500 M 150 290.500 L 150 299 153.865 299 C 159.745 299, 163 295.960, 163 290.466 C 163 284.650, 160.280 282, 154.311 282 L 150 282 150 290.500 M 169 284 C 166.128 286.872, 166.235 294.210, 169.189 296.961 C 172.047 299.625, 176.441 299.559, 179.188 296.813 C 181.885 294.115, 180.123 293.218, 176.628 295.508 C 173.522 297.543, 170.333 296.173, 169.385 292.397 C 168.120 287.359, 172.431 282.352, 175.886 284.847 C 180.158 287.932, 182.555 287.375, 179.506 284.006 C 177.108 281.357, 171.646 281.354, 169 284 M 186.073 284.635 C 179.723 292.708, 189.875 304.085, 196.826 296.686 C 199.724 293.600, 199.817 286.817, 197 284 C 194.022 281.022, 188.670 281.333, 186.073 284.635 M 203 290.500 C 203 297.259, 203.297 299, 204.450 299 C 205.512 299, 205.980 297.475, 206.200 293.302 L 206.500 287.604 210.416 293.302 C 215.943 301.344, 217 300.894, 217 290.500 C 217 283.741, 216.703 282, 215.550 282 C 214.486 282, 214.020 283.531, 213.800 287.750 L 213.500 293.500 209.500 287.762 C 203.930 279.772, 203 280.164, 203 290.500 M 220 290.500 C 220 297.265, 220.296 299, 221.452 299 C 222.535 299, 222.980 297.414, 223.202 292.772 L 223.500 286.544 227.500 292.763 C 229.700 296.184, 232.063 298.986, 232.750 298.991 C 233.653 298.998, 234 296.638, 234 290.500 C 234 283.741, 233.703 282, 232.550 282 C 231.489 282, 231.019 283.522, 230.800 287.676 L 230.500 293.352 226.740 287.676 C 221.304 279.471, 220 280.017, 220 290.500 M 238 290.500 L 238 299 243.500 299 C 246.525 299, 249 298.550, 249 298 C 249 297.450, 247.200 297, 245 297 C 241.222 297, 241 296.833, 241 294 C 241 291.238, 241.278 291, 244.500 291 C 246.425 291, 248 290.550, 248 290 C 248 289.450, 246.425 289, 244.500 289 C 241.433 289, 241 288.690, 241 286.500 C 241 284.250, 241.400 284, 245 284 C 247.200 284, 249 283.550, 249 283 C 249 282.450, 246.525 282, 243.500 282 L 238 282 238 290.500 M 254.073 284.635 C 252.896 286.131, 252 288.744, 252 290.680 C 252 297.481, 260.281 301.662, 264.506 296.994 C 266.942 294.302, 265.797 293.431, 262.587 295.535 C 260.184 297.109, 259.822 297.113, 257.500 295.592 C 255.643 294.375, 255 293.077, 255 290.548 C 255 285.037, 259.998 281.883, 263 285.500 C 264.584 287.409, 266 287.425, 266 285.535 C 266 283.610, 262.875 282, 259.138 282 C 257.096 282, 255.487 282.837, 254.073 284.635 M 269 283 C 269 283.550, 270.350 284, 272 284 L 275 284 275 291.500 C 275 301.115, 276.818 301.321, 277.206 291.750 C 277.493 284.668, 277.564 284.493, 280.250 284.184 C 285.800 283.545, 282.793 282, 276 282 C 272 282, 269 282.429, 269 283 M 152.409 285.377 C 152.118 286.134, 152.020 288.947, 152.190 291.627 C 152.493 296.384, 152.571 296.493, 155.500 296.198 C 160.879 295.657, 162.866 289.866, 159 286 C 156.696 283.696, 153.181 283.364, 152.409 285.377 M 188.571 285.571 C 186.068 288.075, 186.550 293.659, 189.433 295.548 C 192.620 297.636, 195.592 296.132, 196.507 291.968 C 197.797 286.094, 192.399 281.744, 188.571 285.571" stroke="none" fill="#e43e3e" fill-rule="evenodd"/><path d="M 0 250.002 L 0 500.004 250.250 499.752 L 500.500 499.500 500.752 249.750 L 501.004 0 250.502 0 L 0 0 0 250.002 M 0.492 250.500 C 0.492 388, 0.608 444.101, 0.750 375.170 C 0.892 306.238, 0.892 193.738, 0.750 125.170 C 0.608 56.601, 0.492 113, 0.492 250.500 M 191.635 128.100 C 188.409 128.571, 181.589 130.070, 176.479 131.430 C 153.187 137.629, 138.120 145.823, 123.991 159.976 C 110.361 173.628, 105.417 184.578, 104.337 203.500 C 103.627 215.940, 104.944 223.375, 109.503 232.658 C 116.547 247, 128.171 254.014, 144.855 253.988 C 159.525 253.965, 167.828 250.138, 191.500 232.486 C 199.200 226.744, 208.650 220.485, 212.500 218.577 C 232.651 208.589, 259.631 206.025, 281.754 211.994 C 289.667 214.129, 290 214.336, 290 217.110 L 290 220 259 220 L 228 220 228 242.500 L 228 265 259 265 L 290 265 290 297.500 L 290 330 313 330 L 336 330 336 297.500 L 336 265 340.905 265 L 345.811 265 348.770 273.250 C 353.901 287.554, 354.503 291.335, 354.462 309 C 354.422 326.581, 353.567 331.565, 348.282 345 C 345.308 352.560, 338.897 363.995, 334.848 368.963 C 333.003 371.226, 332.365 372.765, 333.006 373.406 C 334.361 374.761, 338.908 370.223, 344.886 361.550 C 370.125 324.938, 370.162 279.992, 344.983 243.570 C 334.520 228.434, 316.723 214.291, 299.687 207.573 C 285.137 201.835, 278.700 200.658, 262 200.679 C 248.448 200.697, 245.246 201.032, 236.523 203.350 C 224.965 206.420, 208.909 214.021, 201 220.167 C 173.459 241.568, 164.853 246.903, 153.705 249.489 C 137.256 253.303, 120.126 245.968, 113.039 232.076 C 105.526 217.349, 106.479 193.210, 115.225 176.686 C 121.086 165.615, 135.472 152.825, 150.705 145.145 C 170.676 135.076, 189.838 130.918, 216.163 130.943 C 234.182 130.960, 247.013 133.052, 260.131 138.111 C 268.387 141.295, 280.917 148.990, 284.878 153.309 C 287.238 155.882, 287.243 155.934, 285.519 160.201 C 284.546 162.606, 283.774 167.154, 283.765 170.524 C 283.711 191.884, 306.497 205.474, 325.249 195.268 C 331.165 192.048, 334.495 188.294, 337.786 181.135 C 339.859 176.624, 340.176 174.712, 339.774 169.135 C 338.972 158.010, 333.734 149.953, 324 144.871 C 320.342 142.961, 318.002 142.528, 311.500 142.560 C 302.713 142.602, 298.821 144.023, 293.387 149.175 L 290.274 152.127 283.528 147.021 C 264.804 132.849, 243.706 126.884, 213.151 127.122 C 204.543 127.189, 194.861 127.629, 191.635 128.100 M 303.500 148.490 C 297.395 150.631, 290.435 158.697, 288.944 165.361 C 284.673 184.446, 303.826 199.882, 321.541 191.633 C 333.631 186.003, 338.370 172.688, 332.623 160.500 C 329.813 154.542, 327.048 151.826, 321 149.084 C 315.782 146.718, 309.192 146.495, 303.500 148.490 M 304.500 154.417 C 302.850 155.154, 300.291 157.049, 298.814 158.628 C 291.777 166.151, 292.435 176.785, 300.369 183.751 C 304.747 187.595, 307.481 188.400, 314.012 187.773 C 327.512 186.476, 333.954 171.171, 325.812 159.737 C 321.616 153.843, 311.463 151.309, 304.500 154.417 M 329.677 196.723 C 323.745 200.688, 319.281 201.984, 311.500 202.003 L 305.500 202.018 312.527 205.525 C 316.391 207.455, 322.859 211.520, 326.900 214.560 C 330.941 217.599, 334.430 219.904, 334.653 219.680 C 334.877 219.456, 334.934 213.474, 334.780 206.387 L 334.500 193.500 329.677 196.723 M 291 196.415 C 291 197.455, 297.903 200.430, 298.630 199.704 C 298.757 199.576, 297.092 198.503, 294.931 197.319 C 292.270 195.862, 291 195.570, 291 196.415 M 342.498 228.535 C 350.522 237.735, 355.113 244.800, 360.144 255.691 L 363.983 264 379.992 264 L 396 264 396 242.500 L 396 221 365.963 221 L 335.927 221 342.498 228.535 M 114 290.427 C 114 300.290, 115.755 302.142, 116.202 292.750 L 116.500 286.500 118.995 292.750 C 120.367 296.188, 121.944 299, 122.500 299 C 123.056 299, 124.633 296.188, 126.005 292.750 L 128.500 286.500 128.798 292.750 C 129.245 302.142, 131 300.290, 131 290.427 C 131 282.918, 130.790 281.894, 129.311 282.179 C 128.356 282.363, 126.726 284.732, 125.561 287.631 C 124.427 290.450, 123.117 292.924, 122.649 293.129 C 122.181 293.333, 120.804 291.026, 119.588 288.002 C 118.314 284.831, 116.664 282.366, 115.689 282.179 C 114.210 281.894, 114 282.918, 114 290.427 M 135 290.500 L 135 299 140.500 299 C 143.525 299, 146 298.550, 146 298 C 146 297.450, 144.200 297, 142 297 C 138.222 297, 138 296.833, 138 294 C 138 291.238, 138.278 291, 141.500 291 C 143.425 291, 145 290.550, 145 290 C 145 289.450, 143.425 289, 141.500 289 C 138.433 289, 138 288.690, 138 286.500 C 138 284.250, 138.400 284, 142 284 C 144.200 284, 146 283.550, 146 283 C 146 282.450, 143.525 282, 140.500 282 L 135 282 135 290.500 M 150 290.500 L 150 299 153.865 299 C 159.745 299, 163 295.960, 163 290.466 C 163 284.650, 160.280 282, 154.311 282 L 150 282 150 290.500 M 169 284 C 166.128 286.872, 166.235 294.210, 169.189 296.961 C 172.047 299.625, 176.441 299.559, 179.188 296.813 C 181.885 294.115, 180.123 293.218, 176.628 295.508 C 173.522 297.543, 170.333 296.173, 169.385 292.397 C 168.120 287.359, 172.431 282.352, 175.886 284.847 C 180.158 287.932, 182.555 287.375, 179.506 284.006 C 177.108 281.357, 171.646 281.354, 169 284 M 186.073 284.635 C 179.723 292.708, 189.875 304.085, 196.826 296.686 C 199.724 293.600, 199.817 286.817, 197 284 C 194.022 281.022, 188.670 281.333, 186.073 284.635 M 203 290.500 C 203 297.259, 203.297 299, 204.450 299 C 205.512 299, 205.980 297.475, 206.200 293.302 L 206.500 287.604 210.416 293.302 C 215.943 301.344, 217 300.894, 217 290.500 C 217 283.741, 216.703 282, 215.550 282 C 214.486 282, 214.020 283.531, 213.800 287.750 L 213.500 293.500 209.500 287.762 C 203.930 279.772, 203 280.164, 203 290.500 M 220 290.500 C 220 297.265, 220.296 299, 221.452 299 C 222.535 299, 222.980 297.414, 223.202 292.772 L 223.500 286.544 227.500 292.763 C 229.700 296.184, 232.063 298.986, 232.750 298.991 C 233.653 298.998, 234 296.638, 234 290.500 C 234 283.741, 233.703 282, 232.550 282 C 231.489 282, 231.019 283.522, 230.800 287.676 L 230.500 293.352 226.740 287.676 C 221.304 279.471, 220 280.017, 220 290.500 M 238 290.500 L 238 299 243.500 299 C 246.525 299, 249 298.550, 249 298 C 249 297.450, 247.200 297, 245 297 C 241.222 297, 241 296.833, 241 294 C 241 291.238, 241.278 291, 244.500 291 C 246.425 291, 248 290.550, 248 290 C 248 289.450, 246.425 289, 244.500 289 C 241.433 289, 241 288.690, 241 286.500 C 241 284.250, 241.400 284, 245 284 C 247.200 284, 249 283.550, 249 283 C 249 282.450, 246.525 282, 243.500 282 L 238 282 238 290.500 M 254.073 284.635 C 252.896 286.131, 252 288.744, 252 290.680 C 252 297.481, 260.281 301.662, 264.506 296.994 C 266.942 294.302, 265.797 293.431, 262.587 295.535 C 260.184 297.109, 259.822 297.113, 257.500 295.592 C 255.643 294.375, 255 293.077, 255 290.548 C 255 285.037, 259.998 281.883, 263 285.500 C 264.584 287.409, 266 287.425, 266 285.535 C 266 283.610, 262.875 282, 259.138 282 C 257.096 282, 255.487 282.837, 254.073 284.635 M 269 283 C 269 283.550, 270.350 284, 272 284 L 275 284 275 291.500 C 275 301.115, 276.818 301.321, 277.206 291.750 C 277.493 284.668, 277.564 284.493, 280.250 284.184 C 285.800 283.545, 282.793 282, 276 282 C 272 282, 269 282.429, 269 283 M 152.409 285.377 C 152.118 286.134, 152.020 288.947, 152.190 291.627 C 152.493 296.384, 152.571 296.493, 155.500 296.198 C 160.879 295.657, 162.866 289.866, 159 286 C 156.696 283.696, 153.181 283.364, 152.409 285.377 M 188.571 285.571 C 186.068 288.075, 186.550 293.659, 189.433 295.548 C 192.620 297.636, 195.592 296.132, 196.507 291.968 C 197.797 286.094, 192.399 281.744, 188.571 285.571" stroke="none" fill="#fbfbfb" fill-rule="evenodd"/></svg>